# xmcd
#
# Track frame offsets:
#	150
#	13910
#	29943
#	47063
#	63997
#	77173
#	91503
#	110739
#	126719
#	140524
#	156241
#	171359
#	184512
#	198452
#
# Disc length: 2828 seconds
#
# Revision: 1
# Processed by: cddbd v1.5.2PL0 Copyright (c) Steve Scherf et al.
# Submitted via: audiograbber 1.83.01
#
DISCID=cc0b0a0e
DTITLE=Michael Heck - Hey Mr. DJ
DYEAR=2011
DGENRE=Pop
TTITLE0=Hey Mr. DJ
TTITLE1=Amarillo
TTITLE2=Himbeereis zum Fruehstueck
TTITLE3=Sweet Caroline
TTITLE4=Jenny, du brauchst keinen Penny
TTITLE5=Gimme, Gimme Good Lovin
TTITLE6=Lady In Black
TTITLE7=Marmor, Stein und Eisen bricht
TTITLE8=Looky Looky
TTITLE9=Daddy Cool
TTITLE10=Du bist nicht allein
TTITLE11=Dreams Are Ten A Penny
TTITLE12=Matador
TTITLE13=Hey Mr. DJ [70iger Band Mix]
EXTD=
EXTT0=
EXTT1=
EXTT2=
EXTT3=
EXTT4=
EXTT5=
EXTT6=
EXTT7=
EXTT8=
EXTT9=
EXTT10=
EXTT11=
EXTT12=
EXTT13=
PLAYORDER=
